<mxfile host="app.diagrams.net" modified="2024-06-10T17:57:05.243Z" agent="Mozilla/5.0 (Macintosh; Intel Mac OS X 10_15_7) AppleWebKit/605.1.15 (KHTML, like Gecko) Version/17.5 Safari/605.1.15" version="24.5.2" etag="MRH1DlrfwcO_B_z4iEX5" type="github">
  <diagram name="Page-1" id="CQLl3U-VYcwBygkGHsDv">
    <mxGraphModel>
      <root>
        <mxCell id="0" />
        <mxCell id="1" parent="0" />
      </root>
    </mxGraphModel>
  </diagram>
</mxfile>
